<svg width="21" height="20" viewBox="0 0 21 20" fill="none" xmlns="http://www.w3.org/2000/svg">
<path d="M16.3741 16.6791C15.028 17.9499 13.1182 18.7171 10.6175 18.7171C7.4084 18.7171 4.51155 16.808 3.09033 14.0247L5.91145 11.811C6.56518 13.8583 8.42516 15.3351 10.6175 15.3351C11.8445 15.3351 12.8358 15.0289 13.6 14.5022L16.3741 16.6791V16.6791Z" fill="#34A853"/>
<path d="M5.66059 10.1918C5.66059 10.7575 5.74862 11.3019 5.91129 11.811L3.09017 14.0247C2.50194 12.8724 2.1665 11.5703 2.1665 10.1918C2.1665 8.81336 2.50194 7.51128 3.09028 6.35901L5.91129 8.57277C5.74862 9.08187 5.66059 9.62613 5.66059 10.1918V10.1918Z" fill="#FBBC05"/>
<path d="M16.3553 3.95282L13.9601 6.31376C13.1087 5.52583 11.9611 5.0486 10.6174 5.0486C8.42494 5.0486 6.56507 6.52544 5.91134 8.5728L3.09033 6.35904C4.51144 3.57573 7.40829 1.66663 10.6174 1.66663C12.9502 1.66663 14.9262 2.53435 16.3553 3.95282Z" fill="#EA4335"/>
<path d="M18.8329 10.1919C18.8329 10.7934 18.7899 11.3804 18.7031 11.9468C18.4153 13.8259 17.6465 15.4777 16.3738 16.6791L13.5996 14.5022C14.4765 13.8978 15.0545 13.0029 15.3471 11.9468H10.73V8.78833H18.7321C18.7987 9.245 18.8329 9.71376 18.8329 10.1919V10.1919Z" fill="#4285F4"/>
</svg>
